<?xml version="1.0" encoding="UTF-8"?>
<svg id="Layer_1" xmlns="http://www.w3.org/2000/svg" version="1.1" viewBox="0 0 288 288">
  <!-- Generator: Adobe Illustrator 29.2.1, SVG Export Plug-In . SVG Version: 2.1.0 Build 116)  -->
  <defs>
    <style>
      .st0 {
        fill: #2d3460;
      }

      .st1 {
        fill: #acc6e4;
      }
    </style>
  </defs>
  <rect class="st1" x="24.25" y="24.25" width="239.5" height="239.5" rx="33.2" ry="33.2"/>
  <g>
    <path class="st0" d="M71.08,193.65l54.33-108.13h15.75l19.44,107.9,11.99,2.46-.54,6.61h-39.58l.38-6.61,11.99-2.23-3.84-24.59h-43.57l-11.53,24.44,12.3,2.38-.46,6.61h-36.5l.69-6.61,9.15-2.23ZM130.72,98.43l-28.9,61.33h37.73l-7.99-52.03-.85-9.3Z"/>
    <path class="st0" d="M139.53,154.3c-.21-10.55,1.2-20.13,4.23-28.74,3.02-8.61,7.15-15.97,12.37-22.09,5.23-6.12,11.34-10.85,18.33-14.18,6.99-3.33,14.36-5,22.09-5,3.48,0,6.63.13,9.45.38,2.82.26,5.34.56,7.57.92,2.23.36,4.19.74,5.88,1.15,1.69.41,3.15.77,4.38,1.08l2.92.85-5.07,28.28h-9.38l-1.84-20.13c-1.38-.97-3.27-1.79-5.65-2.46-2.38-.67-5.8-1-10.26-1-4.87,0-9.21.94-13.03,2.81-3.82,1.87-7.16,4.36-10.03,7.45-2.87,3.1-5.29,6.69-7.26,10.76-1.97,4.07-3.57,8.3-4.8,12.68s-2.1,8.79-2.61,13.22c-.51,4.43-.74,8.57-.69,12.41.1,5.07.64,10.12,1.61,15.14.97,5.02,2.48,9.5,4.53,13.45,2.05,3.95,4.7,7.15,7.95,9.61,3.25,2.46,7.19,3.69,11.8,3.69,1.74,0,3.64-.14,5.69-.42,2.05-.28,4.02-.74,5.92-1.38,1.89-.64,3.62-1.46,5.19-2.46,1.56-1,2.75-2.22,3.57-3.65.51-1.49.96-2.78,1.34-3.88.38-1.1.81-2.31,1.27-3.61s.88-2.52,1.27-3.65c.38-1.13.7-2.06.96-2.81.26-.74.38-1.14.38-1.19l9.53.08-3.07,25.28c-1.33.46-3.1,1.08-5.3,1.84-2.2.77-4.79,1.53-7.76,2.27-2.97.74-6.32,1.38-10.03,1.92-3.72.54-7.72.81-12.03.81-4.71,0-8.95-.67-12.72-2-3.77-1.33-7.1-3.16-9.99-5.49-2.9-2.33-5.39-5.08-7.49-8.26-2.1-3.18-3.82-6.6-5.15-10.26-1.33-3.66-2.33-7.48-3-11.45-.67-3.97-1.03-7.95-1.08-11.95Z"/>
  </g>
</svg>