<?xml version="1.0" encoding="UTF-8"?>
<svg id="Layer_1" xmlns="http://www.w3.org/2000/svg" version="1.1" viewBox="0 0 288 288">
  <!-- Generator: Adobe Illustrator 29.1.0, SVG Export Plug-In . SVG Version: 2.1.0 Build 142)  -->
  <defs>
    <style>
      .st0 {
        fill: #f5efe7;
      }

      .st1 {
        fill: #2d3460;
      }
    </style>
  </defs>
  <rect class="st1" x="19.83" y="23.72" width="248.34" height="240.57" rx="14.27" ry="14.27"/>
  <g>
    <path class="st0" d="M190.93,90.13v53.25l-47.15,33.99-46.63-33.99v-53.25c15.25,11.08,30.49,22.16,45.33,33.77l1.9.45c15.58-11.34,30.98-22.87,46.52-34.21h.04Z"/>
    <path class="st0" d="M97.14,142.61v69.13h-32.99c-1.12-.33-3.98-1.41-6.28-4.28-2.38-2.98-2.79-6.1-2.86-7.25.3-29.53-.41-59.09,0-88.58l42.13,30.98Z"/>
    <path class="st0" d="M233.03,111.59c.41,29.53-.3,59.09,0,88.58.07.78.33,4.28-2.12,7.47-2.6,3.38-6.32,3.94-7.03,4.05h-32.99v-69.13l42.13-30.98Z"/>
    <path class="st0" d="M97.14,90.13v52.43l-42.13-30.98c.15-12.01-3.01-26.22,9.48-33.02,13.61-7.4,22.91,4.5,32.61,11.57h.04Z"/>
    <path class="st0" d="M233.03,111.59l-42.13,30.98v-52.43c9.71-7.07,19-18.97,32.61-11.57,12.5,6.81,9.33,21.01,9.48,33.02h.04Z"/>
  </g>
</svg>