<?xml version="1.0" encoding="UTF-8"?>
<svg id="Layer_1" xmlns="http://www.w3.org/2000/svg" version="1.1" viewBox="0 0 288 288">
  <!-- Generator: Adobe Illustrator 29.1.0, SVG Export Plug-In . SVG Version: 2.1.0 Build 142)  -->
  <defs>
    <style>
      .st0 {
        fill: #2d3460;
      }
    </style>
  </defs>
  <path class="st0" d="M63.18,17.8l160.55-.16c24.32,3.76,43.1,23.23,46.31,47.55v157.65c-3.14,24.51-22.42,44.15-46.93,47.51H64.85c-24.2-3.29-43.68-22.69-46.9-46.93V62.79c4.18-23.04,22.27-40.82,45.23-45h0ZM67.48,35.61c-16.92,2.48-29.9,15.49-31.75,32.64v150.29c1.28,18.2,15.3,32.33,33.38,34.04h149.09c18.39-1.7,32.68-15.37,34.04-34.04V69.46c-1.63-18.12-14.83-31.75-32.84-34l-151.95.16h.04Z"/>
  <path class="st0" d="M138.66,71.82c63.78-4.45,102,71.14,59.95,119.43-35.12,40.35-100.14,30.44-121.05-18.82-19.36-45.54,11.85-97.2,61.15-100.64l-.04.04ZM135.56,90.17c-20.91,2.44-39.85,21.26-44.46,41.43-10.46,46.08,39,83.34,80.12,59.25,50.42-29.55,24.94-107.81-35.67-100.68Z"/>
  <path class="st0" d="M215.87,62.64c12.2-.31,12.08,17.81.46,18.12-11.62.31-12.31-17.81-.46-18.12Z"/>
</svg>